PathFileType	4	(X/Y/Z)	/Users/niels/Desktop/University/Third Semester/Perception and Action/Exam/Gymnastics Motion Tracking/Code for Gym Tracking/Analyzed Data/Webcam_Backflip/id3_3_trajectory_Sports2D/id3_3_trajectory_Sports2D_px_person00.trc
DataRate	CameraRate	NumFrames	NumMarkers	Units	OrigDataRate	OrigDataStartFrame	OrigNumFrames
29.8125	29.8125	8	22	m	29.8125	40	160
Frame#	Time	Hip			RHip			RKnee			RAnkle			RBigToe			RSmallToe			RHeel			LHip			LKnee			LAnkle			LBigToe			LSmallToe			LHeel			Neck			Head			Nose			RShoulder			RElbow			RWrist			LShoulder			LElbow			LWrist		
		X1	Y1	Z1	X2	Y2	Z2	X3	Y3	Z3	X4	Y4	Z4	X5	Y5	Z5	X6	Y6	Z6	X7	Y7	Z7	X8	Y8	Z8	X9	Y9	Z9	X10	Y10	Z10	X11	Y11	Z11	X12	Y12	Z12	X13	Y13	Z13	X14	Y14	Z14	X15	Y15	Z15	X16	Y16	Z16	X17	Y17	Z17	X18	Y18	Z18	X19	Y19	Z19	X20	Y20	Z20	X21	Y21	Z21	X22	Y22	Z22
40	1.341719077568134	1.005483542118305	-0.35153573394946114	0.0	1.0089604426700114	-0.35161712701577486	0.0	1.0336912672325131	-0.260492908631411	0.0	1.087822211597912	-0.31626748069181615	0.0	1.1135281940259754	-0.3035803729249875	0.0	1.1155909261152637	-0.3103861912320721	0.0	1.0934599857532634	-0.3260804830619005	0.0	1.0033328037417786	-0.34991385726122926	0.0	1.03045835241798	-0.2653251994168066	0.0	1.084995420897753	-0.3117703101384576	0.0	1.1109517875857493	-0.30128018795669753	0.0	1.1110025160481727	-0.3039158817614023	0.0	1.090074935349318	-0.32412369322379253	0.0	0.878627151474618	-0.3189885728382167	0.0	0.8062232877599739	-0.3282999925755341	0.0	0.8413165089917265	-0.30400795383075735	0.0	0.8920073270483394	-0.3046387267077011	0.0	0.9547261197593113	-0.2518254131219193	0.0	0.9716625887313439	-0.1818347168048318	0.0	0.8910418905211034	-0.3156496726705421	0.0	0.9621150674961566	-0.28137222168992526	0.0	0.9811880159729329	-0.2204103365558638	0.0
41	1.3752620545073373	1.011678395363531	-0.33216763891802104	0.0	1.0138632559735932	-0.3329545834584493	0.0	1.0042454615181287	-0.24088962315130205	0.0	1.0759290508063084	-0.26527179403676654	0.0	1.0953098125072536	-0.2412265514183389	0.0	1.0983565558399926	-0.24878870607865416	0.0	1.0858367696528672	-0.2699068153595028	0.0	1.0113792934259347	-0.33098392586474124	0.0	1.0052637036650933	-0.24452763167655722	0.0	1.0738859920666766	-0.261196580117543	0.0	1.094937412896452	-0.2385587117077946	0.0	1.0961292243350342	-0.2408778415316104	0.0	1.0832979379831262	-0.2682289096679353	0.0	0.8877700532530096	-0.3286468536830277	0.0	0.8264058617886912	-0.3492565721426255	0.0	0.8555115135025514	-0.32906985724160526	0.0	0.899846805310028	-0.31248273291724465	0.0	0.957987914972174	-0.25953280186385175	0.0	0.9685362127758643	-0.1949187551416031	0.0	0.9001368680837902	-0.3211588375718619	0.0	0.9648223390376113	-0.2786629249097298	0.0	0.9755514646562335	-0.21998767499368804	0.0
42	1.4088050314465406	1.0152361400459848	-0.3120487869697139	0.0	1.0155315471521935	-0.31383996304387196	0.0	0.9760279348180568	-0.23634499903255723	0.0	1.053045687123898	-0.22821271977408095	0.0	1.0616331001458923	-0.20053030731410743	0.0	1.065425155321964	-0.2073165528453382	0.0	1.0652856496145404	-0.22727907523777102	0.0	1.017296105971044	-0.31146408550879345	0.0	0.9828900611748606	-0.23783680993655187	0.0	1.0524707435332268	-0.22552355426894305	0.0	1.0645206213675975	-0.19673660217645642	0.0	1.067074157341879	-0.19857543586656048	0.0	1.0642587809876785	-0.22576814740789225	0.0	0.9046784853164627	-0.3401730726052002	0.0	0.8581464876049197	-0.3721097832688469	0.0	0.8791597996541572	-0.3569952445612454	0.0	0.9131432634464155	-0.3227356554714404	0.0	0.9594321554011674	-0.26823108435491005	0.0	0.9605385486586137	-0.211703774048501	0.0	0.9169812736488748	-0.32832775869326597	0.0	0.9702080376254694	-0.2785788097779062	0.0	0.9695073854508711	-0.22547710963741502	0.0
43	1.442348008385744	1.014678708341658	-0.29220862260806363	0.0	1.012923956446069	-0.29511310478731756	0.0	0.9510432931935074	-0.24372188009015083	0.0	1.0213316584090735	-0.2059503003144191	0.0	1.0161680736397405	-0.18176824286668858	0.0	1.0205451376170553	-0.18646865861712236	0.0	1.034029578360291	-0.2000327970363092	0.0	1.019085622342789	-0.2920286658663408	0.0	0.9649383243920918	-0.24262100063279604	0.0	1.0229435976234404	-0.20526412161874177	0.0	1.0224964407515928	-0.17599347634447648	0.0	1.0271888696980624	-0.1776935134183657	0.0	1.0354583855309358	-0.1984965687816549	0.0	0.9290367977759414	-0.35116524117557923	0.0	0.9005078990674177	-0.3929119815032211	0.0	0.9111604214368236	-0.38243454597736215	0.0	0.9318586475941694	-0.33313988549102347	0.0	0.9590966027404727	-0.2769493521730004	0.0	0.9488885741707598	-0.2312718131981333	0.0	0.9410701475628983	-0.33585425775510774	0.0	0.9786167272455868	-0.28139767932003706	0.0	0.9649777554900296	-0.2371026583272008	0.0
44	1.4758909853249473	1.0099210454095209	-0.2740812216913439	0.0	1.006380713873321	-0.2780200394396962	0.0	0.9301204447539798	-0.2594034220713093	0.0	0.9840084737819614	-0.19704715183060145	0.0	0.9641093662754677	-0.18139116501558492	0.0	0.9688283020839704	-0.18305617676220748	0.0	0.9956534530200323	-0.18703530658023781	0.0	1.0162414583304828	-0.27395274011107756	0.0	0.9511926074956155	-0.25554572284929544	0.0	0.9884886033153384	-0.19856658794903537	0.0	0.9734420294495569	-0.17304299369424375	0.0	0.9811635183053284	-0.17516069730259876	0.0	1.000665320315645	-0.18530432403160954	0.0	0.9590907448454593	-0.3597657341699086	0.0	0.9506070747868532	-0.40866294318635604	0.0	0.9492281178399531	-0.401546096479121	0.0	0.9549090305430942	-0.3419138428058817	0.0	0.9576165644251927	-0.28539671731664634	0.0	0.9355917513838091	-0.2529140182030013	0.0	0.970389015354933	-0.34225499025088585	0.0	0.9897712944729674	-0.2859041944467919	0.0	0.9631891754830669	-0.2528924589107379	0.0
45	1.5094339622641506	1.0018963158785281	-0.25927063095769365	0.0	0.9970746841481612	-0.26407230434179735	0.0	0.9136885919449085	-0.28027462895449307	0.0	0.9444166883468751	-0.19990916308649836	0.0	0.9113355243988418	-0.1956959807468394	0.0	0.915893296842822	-0.19383987455785023	0.0	0.9538087892347105	-0.18662331322086984	0.0	1.0095070960618704	-0.25884426792407855	0.0	0.9404731726559575	-0.2735007119148065	0.0	0.952340950582879	-0.20334682197319612	0.0	0.9229813569980607	-0.18469784527029356	0.0	0.9340785816948634	-0.1874688384833049	0.0	0.9635543358265695	-0.1845524914028852	0.0	0.9919599033563794	-0.36471099723280137	0.0	1.0041291991405301	-0.417560897470588	0.0	0.9902726656467339	-0.412612014739234	0.0	0.9802558509608725	-0.34789933247578514	0.0	0.9560470851834163	-0.2940892209572881	0.0	0.9230476382286994	-0.27652712078955155	0.0	1.0018748191326297	-0.34591749756440143	0.0	1.0031991974860135	-0.29004022500657717	0.0	0.9647558576537324	-0.2699382563518823	0.0
46	1.542976939203354	0.9918431763822286	-0.24969745231336635	0.0	0.9863322921586711	-0.25516478707590345	0.0	0.902380199502815	-0.304314882016798	0.0	0.905810741266564	-0.21452498901874156	0.0	0.8639007795886384	-0.22315446860728813	0.0	0.867478413757212	-0.21782130584313333	0.0	0.9118934767668229	-0.19873067233208994	0.0	1.0000487239306524	-0.24869571961020853	0.0	0.9316447758570152	-0.29443264539963504	0.0	0.9174112540514305	-0.21901818151645897	0.0	0.8769511438844821	-0.21000442781460685	0.0	0.8907810736851501	-0.21299168364080273	0.0	0.9271491526473777	-0.1961012416001847	0.0	1.0242986058619485	-0.3650647945188695	0.0	1.0562525740346156	-0.418387567052079	0.0	1.0309545652099676	-0.4150974091549342	0.0	1.0054197492647676	-0.3503800854293334	0.0	0.9556760581577476	-0.30410986187384476	0.0	0.9139690904192199	-0.30262074339017175	0.0	1.0320595569254585	-0.3452764410255204	0.0	1.0180897232636439	-0.29169039877836106	0.0	0.9699121879263685	-0.2856668319096149	0.0
47	1.5765199161425574	0.980887785660791	-0.24736482385564565	0.0	0.9752593423585022	-0.25327771876041255	0.0	0.8969566072274212	-0.3304896051854616	0.0	0.8715957153028113	-0.24230710924368518	0.0	0.8274539161332124	-0.26409505983121057	0.0	0.8290911661912437	-0.25589124481282455	0.0	0.8734144397810648	-0.22495093470789376	0.0	0.9889257949719862	-0.24560775020644376	0.0	0.9243091669919546	-0.31757958216609655	0.0	0.8862464414307568	-0.24641092268097683	0.0	0.8404759876519138	-0.24972694435483106	0.0	0.855307657464032	-0.25181729992497004	0.0	0.8937730016670359	-0.22132650441325696	0.0	1.052822154990357	-0.3603672232447965	0.0	1.102420643559516	-0.4105496633245126	0.0	1.068025007742265	-0.40925184284316557	0.0	1.0279201627957941	-0.34917696126151726	0.0	0.9577956008331987	-0.31666341134215187	0.0	0.9111944249236235	-0.3318879516730781	0.0	1.0576043878757195	-0.3394197627221655	0.0	1.0326850638991951	-0.28960255816429653	0.0	0.9783523424691078	-0.29895554397645985	0.0
